HIERARCHY
ROOT hip
{
	OFFSET 0.000000 0.000000 0.000000 
	CHANNELS 6 Xposition Yposition Zposition Xrotation Zrotation Yrotation
	JOINT abdomen
	{
		OFFSET 0.000000 3.402643 0.000000 
		CHANNELS 3 Xrotation Zrotation Yrotation
		JOINT chest
		{
			OFFSET 0.000000 8.438565 -0.680529 
			CHANNELS 3 Xrotation Zrotation Yrotation
			JOINT neck
			{
				OFFSET 0.000000 10.207942 -0.272212 
				CHANNELS 3 Xrotation Zrotation Yrotation
				JOINT head
				{
					OFFSET 0.000000 3.130431 0.000000 
					CHANNELS 3 Xrotation Zrotation Yrotation
					End Site
					{
						OFFSET 0.000000 3.130435 0.000000 
					}
				}
			}
			JOINT lCollar
			{
				OFFSET 3.470700 6.669187 -0.816635 
				CHANNELS 3 Yrotation Zrotation Xrotation
				JOINT lShldr
				{
					OFFSET 3.198488 0.000000 0.000000 
					CHANNELS 3 Zrotation Yrotation Xrotation
					JOINT lForeArm
					{
						OFFSET 10.139888 0.000000 0.000000 
						CHANNELS 3 Yrotation Zrotation Xrotation
						JOINT lHand
						{
							OFFSET 8.370511 0.000000 0.000000 
							CHANNELS 3 Zrotation Yrotation Xrotation
							End Site
							{
								OFFSET 4.083176 0.000000 0.000000 
							}
						}
					}
				}
			}
			JOINT rCollar
			{
				OFFSET -3.470700 6.669187 -0.816635 
				CHANNELS 3 Yrotation Zrotation Xrotation
				JOINT rShldr
				{
					OFFSET -3.198488 0.000000 0.000000 
					CHANNELS 3 Zrotation Yrotation Xrotation
					JOINT rForeArm
					{
						OFFSET -10.139888 0.000000 0.000000 
						CHANNELS 3 Yrotation Zrotation Xrotation
						JOINT rHand
						{
							OFFSET -8.370511 0.000000 0.000000 
							CHANNELS 3 Zrotation Yrotation Xrotation
							End Site
							{
								OFFSET -4.083176 0.000000 0.000000 
							}
						}
					}
				}
			}
		}
	}
	JOINT lThigh
	{
		OFFSET 5.308129 -1.633274 1.361059 
		CHANNELS 3 Xrotation Zrotation Yrotation
		JOINT lShin
		{
			OFFSET -2.041588 -20.007561 0.000000 
			CHANNELS 3 Xrotation Zrotation Yrotation
			JOINT lFoot
			{
				OFFSET 0.000000 -19.190928 -1.224953 
				CHANNELS 3 Xrotation Yrotation Zrotation
				End Site
				{
					OFFSET 0.000000 -2.449906 4.627600 
				}
			}
		}
	}
	JOINT rThigh
	{
		OFFSET -5.308129 -1.633274 1.361059 
		CHANNELS 3 Xrotation Zrotation Yrotation
		JOINT rShin
		{
			OFFSET 2.041588 -20.007561 0.000000 
			CHANNELS 3 Xrotation Zrotation Yrotation
			JOINT rFoot
			{
				OFFSET 0.000000 -19.190928 -1.224953 
				CHANNELS 3 Xrotation Yrotation Zrotation
				End Site
				{
					OFFSET 0.000000 -2.449906 4.627600 
				}
			}
		}
	}
}
MOTION
Frames: 9
Frame Time: 0.033333
3.159266 37.747433 42.221752 -6.865235 3.515625 -151.162109 21.757814 1.289063 -8.993921 -11.230469 -6.269532 -8.985442 -1.855469 6.464844 -6.767578 13.232422 12.158203 -7.158203 12.138672 19.394531 0.924491 57.919922 -63.203129 -106.717705 -69.316406 -3.486328 -58.340107 14.638673 -14.785155 -3.479053 -14.453126 -22.578125 1.054688 -39.785156 37.529301 -92.757729 86.708984 3.603516 -50.850224 -22.880859 -5.214844 1.883878 4.871898 24.498344 4.998424 53.195076 -0.330393 -3.000616 -2.759464 15.794495 -6.119570 -62.774826 -18.652477 19.329447 39.985611 0.635540 2.853043 20.750990 8.451544 3.807213 
2.710996 37.320908 44.025700 -6.337891 4.570313 -155.742188 20.703125 0.898438 -8.925781 -11.572265 -5.556640 -8.643524 2.958984 7.646484 -4.091796 11.650391 10.576172 -5.429688 14.062501 19.970705 0.982993 52.460938 -57.734375 -107.264122 -73.818359 -3.632812 -52.509766 14.853515 -18.955080 -4.619141 -18.388670 -22.929688 1.009664 -39.980469 32.880859 -99.867744 93.710938 3.476562 -47.129501 -22.675781 -2.783203 0.888198 7.888753 22.094807 0.976059 52.098568 0.157561 -3.599859 -7.819008 13.315055 -5.103506 -66.002014 -14.609399 16.398764 47.157604 -0.039644 3.278611 18.743755 7.090255 4.759535 
2.319863 36.572220 45.638794 -6.162109 5.273438 -159.775681 19.472656 0.341797 -8.906242 -12.275390 -5.908203 -8.487333 5.527344 8.242188 -1.854069 12.001953 10.048828 -3.671875 16.923828 21.083984 1.060941 50.908203 -51.386715 -113.074036 -77.753906 -3.417969 -46.093170 16.249998 -21.289063 -5.654297 -21.611326 -22.373049 1.097468 -39.316406 28.056641 -107.143837 99.736328 3.457031 -44.951168 -24.833984 1.191406 -0.712686 8.250678 20.161692 -2.428122 53.527012 0.066623 -3.349068 -11.667386 9.350621 -4.891292 -71.484886 -9.864193 12.644405 63.299385 -1.400614 3.378335 9.094783 3.085361 6.531206 
1.892612 35.658409 47.029018 -6.162109 5.097657 -163.291016 18.242188 -0.156250 -9.062500 -13.515625 -6.953125 -8.525392 7.236329 7.958984 0.294321 13.945312 10.927733 -2.216797 19.794920 21.757813 1.210937 49.951176 -45.781254 -120.798012 -82.343750 -3.164063 -40.351025 16.835938 -22.216797 -6.058380 -23.339844 -21.279297 0.937500 -38.437500 24.863281 -115.634758 105.556641 3.427734 -42.080078 -27.353514 3.789063 -1.952480 9.121017 18.759306 -0.984942 55.113972 -0.040814 -3.311485 -17.573124 5.457165 -5.084897 -75.766647 -6.357982 9.042655 81.553268 -2.459077 3.913135 -2.224886 -4.419686 6.531381 
1.448933 34.761147 48.195168 -6.337891 4.570313 -166.289063 17.187498 -0.830078 -9.257812 -15.097657 -7.460937 -8.398438 8.349609 6.884765 -1.357422 17.294922 11.455077 2.597656 22.812500 21.875000 1.138941 50.771484 -40.996094 -130.683594 -85.683594 -3.125000 -34.091789 16.630859 -21.435549 -5.667632 -24.667967 -20.507813 0.813969 -37.265625 23.164063 -125.298889 110.839844 3.447266 -40.283787 -28.710939 5.654297 -3.125000 9.790663 17.523010 2.300949 56.694969 -0.205309 -3.462540 -23.419977 3.474593 -5.327482 -77.540718 -3.731357 4.720322 97.166428 -3.546152 3.738489 -9.652905 -9.305888 5.277588 
1.004167 34.008957 49.136642 -6.337891 4.042969 -169.101563 16.142578 -1.386719 -9.248283 -15.966797 -7.460938 -8.243456 8.876953 5.722656 -0.693359 19.941406 12.148438 4.064556 25.986328 21.289063 1.041376 52.392578 -37.128906 -140.419922 -89.589844 -2.792969 -29.315929 16.162109 -19.794922 -5.214844 -25.742188 -19.970705 0.921303 -36.621094 21.894531 -135.136734 115.947273 3.369141 -37.549400 -28.564453 5.927735 -3.271484 9.716277 15.664095 4.536451 59.166718 -0.191276 -3.232526 -28.343588 3.597677 -5.388349 -75.129189 -1.074179 -1.310716 107.731621 -4.247434 3.184748 -11.649899 -5.410444 5.498086 
0.615087 33.458977 49.864792 -6.513672 3.505859 -171.386124 15.273438 -2.167969 -9.111697 -16.669922 -7.099609 -7.910157 9.238281 4.697266 -0.400391 22.421875 12.314454 5.002083 28.583984 20.029299 1.022046 53.271484 -34.218750 -147.138672 -94.218750 -2.753906 -23.476564 15.654297 -17.832029 -4.648437 -26.435547 -19.902344 0.908204 -35.888676 21.044922 -143.066406 121.757820 3.164063 -34.395069 -28.369139 5.839844 -3.104527 8.881180 13.636359 5.950634 61.801388 -0.206592 -3.368572 -31.142193 4.430670 -4.274597 -69.661392 0.683779 -7.602236 111.956406 -4.247742 3.142079 -10.501351 2.217165 7.462804 
0.276982 33.155182 50.374546 173.320328 177.001953 7.207542 14.580079 -2.714844 -9.092259 -17.187500 -6.748048 -7.755053 8.720703 3.974610 -0.497370 24.003906 12.304688 5.205079 30.654295 19.013672 0.957032 53.046875 -31.728518 -150.415283 -98.554688 -2.421875 -18.202711 16.972656 -15.351563 -4.279927 -27.197266 -19.453127 0.921221 -35.117184 20.546875 -147.418442 126.240227 3.164063 -33.359379 -28.105467 6.679688 -3.563315 7.691610 12.447795 7.314218 64.604874 0.106085 -3.493573 -32.332264 5.207325 -3.690142 -63.182045 1.923817 -13.335426 110.380264 -3.899834 2.947026 -16.301994 1.136177 7.582080 
0.036600 33.065670 50.674118 172.968765 177.001953 7.031761 14.404297 -2.939453 -8.975110 -17.714844 -6.572266 -7.764790 7.500000 3.583984 -0.810547 24.892578 12.128906 5.050880 31.298826 19.208982 1.015625 51.347656 -30.341797 -150.737350 -100.615234 -2.431641 -16.562613 15.996095 -13.652345 -3.537461 -26.503906 -19.511719 0.921230 -33.798828 20.566404 -146.152344 128.886719 3.105469 -31.133337 -29.902346 11.259766 -6.210938 6.441252 12.230566 8.493698 65.826385 0.466278 -3.506094 -32.721363 4.806500 -3.954414 -59.511295 2.275318 -15.983560 107.572983 -3.713428 3.153349 -24.222038 -4.680416 5.162296 
